# xmcd CD database file generated by MAGIX-FreeDB-MP3_Maker_14 v2.0beta1
# 
# Track frame offsets:
#      150
#      13430
#      29075
#      46265
#      65007
#      77986
#      96067
#      111140
#      140399
#      152402
#      169052
#      187343
#      201379
#      224401
#      240205
#      253919
#      277739
#      294357
#      305843
#      327804
# 
# Disc length: 4590 seconds
# 
# Revision: 2 
# Processed by: cddbd v1.5.2PL0 Copyright (c) Steve Scherf et al.
# Submitted via: MAGIX-FreeDB-MP3_Maker_14 v2.0beta1
# 
DISCID=2c11ec14
DTITLE=Various Artist - 100 Hits Soul Classics - CD3
DYEAR=2006
DGENRE=Soul
TTITLE0=Percy Sledge - When A Man Loves A Woman
TTITLE1=The Trammps - Hold Back The Night
TTITLE2=Brook Benton - Rainy Night In Georgia
TTITLE3=Thelma Houston - Don't Leave Me This Way
TTITLE4=Brenda Holloway - Every Little Bit Hurts
TTITLE5=Chuck Jackson - All Over The World
TTITLE6=The Detroit Emeralds - Feel The Need In Me
TTITLE7=Billy Preston - Outer Space
TTITLE8=Mary Wells - My Guy
TTITLE9=Mary Wells - Two Lovers
TTITLE10=Odyssey - It Will Be Alright
TTITLE11=The Supremes - Reflections
TTITLE12=Core feat. Louise - It's Too Late
TTITLE13=The Three Degrees - Take Good Care Of Yourself
TTITLE14=P.P Arnold - Everything Is Gonna Be Alright
TTITLE15=Candi Staton - Victim
TTITLE16=GC Cameron - Just My Imagination
TTITLE17=Billy Eckstine - Gentle Lady
TTITLE18=Miquel Brown - White Lace
TTITLE19=Vee - Smiling Faces Sometimes
EXTD=
EXTT0=
EXTT1=
EXTT2=
EXTT3=
EXTT4=
EXTT5=
EXTT6=
EXTT7=
EXTT8=
EXTT9=
EXTT10=
EXTT11=
EXTT12=
EXTT13=
EXTT14=
EXTT15=
EXTT16=
EXTT17=
EXTT18=
EXTT19=
PLAYORDER=
